<?xml version="1.0" encoding="UTF-8"?>
<svg width="16" height="16" viewBox="0 0 16 16" fill="none" xmlns="http://www.w3.org/2000/svg">
    <path d="M13 2H3C2.44772 2 2 2.44772 2 3V13C2 13.5523 2.44772 14 3 14H13C13.5523 14 14 13.5523 14 13V3C14 2.44772 13.5523 2 13 2Z" stroke="#424242" stroke-width="1.5"/>
    <path d="M4 5H6C6.55228 5 7 5.44772 7 6V8C7 8.55228 6.55228 9 6 9H4V11" stroke="#424242" stroke-width="1.5" stroke-linejoin="round"/>
    <path d="M8 11V5H10C10.5523 5 11 5.44772 11 6V7C11 7.55228 10.5523 8 10 8H8" stroke="#424242" stroke-width="1.5" stroke-linejoin="round"/>
    <path d="M12 5V11" stroke="#424242" stroke-width="1.5" stroke-linejoin="round"/>
</svg>
