<?xml version="1.0" encoding="UTF-8"?>
<svg width="16" height="16" viewBox="0 0 16 16" fill="none" xmlns="http://www.w3.org/2000/svg">
    <path d="M13 2H3C2.44772 2 2 2.44772 2 3V13C2 13.5523 2.44772 14 3 14H13C13.5523 14 14 13.5523 14 13V3C14 2.44772 13.5523 2 13 2Z" stroke="#C5C5C5" stroke-width="1.5"/>
    <path d="M8 3L12 5V6.5L8 8.5L4 6.5V5L8 3Z" stroke="#C5C5C5" stroke-width="1.5" stroke-linejoin="round"/>
    <path d="M12 6.5V9" stroke="#C5C5C5" stroke-width="1.5" stroke-linejoin="round"/>
    <path d="M5.5 7.5V10.5C5.5 10.5 6.5 12 8 12C9.5 12 10.5 10.5 10.5 10.5V7.5" stroke="#C5C5C5" stroke-width="1.5" stroke-linejoin="round"/>
</svg>
